<svg xmlns="http://www.w3.org/2000/svg" viewBox="0 0 1024 1024" width="1024" height="1024">
  <defs>
    <clipPath id="bg-clip">
      <rect width="1024" height="1024" rx="180" ry="180"/>
    </clipPath>
  </defs>

  <!-- Background with rounded corners -->
  <rect width="1024" height="1024" rx="180" ry="180" fill="#0066CC"/>

  <!-- Cosmos texture — subtle star specks, clipped to rounded rect -->
  <g clip-path="url(#bg-clip)">
    <circle cx="87" cy="43" r="2" fill="#FFFFFF" opacity="0.10"/>
    <circle cx="203" cy="78" r="3" fill="#FFFFFF" opacity="0.08"/>
    <circle cx="412" cy="52" r="2" fill="#FFFFFF" opacity="0.12"/>
    <circle cx="589" cy="31" r="4" fill="#FFFFFF" opacity="0.09"/>
    <circle cx="741" cy="67" r="2" fill="#FFFFFF" opacity="0.11"/>
    <circle cx="918" cy="45" r="3" fill="#FFFFFF" opacity="0.08"/>
    <circle cx="55" cy="142" r="3" fill="#FFFFFF" opacity="0.10"/>
    <circle cx="164" cy="189" r="2" fill="#FFFFFF" opacity="0.13"/>
    <circle cx="338" cy="155" r="5" fill="#FFFFFF" opacity="0.08"/>
    <circle cx="623" cy="138" r="2" fill="#FFFFFF" opacity="0.11"/>
    <circle cx="785" cy="172" r="3" fill="#FFFFFF" opacity="0.09"/>
    <circle cx="950" cy="153" r="2" fill="#FFFFFF" opacity="0.12"/>
    <circle cx="98" cy="278" r="4" fill="#FFFFFF" opacity="0.09"/>
    <circle cx="482" cy="243" r="2" fill="#FFFFFF" opacity="0.10"/>
    <circle cx="690" cy="262" r="3" fill="#FFFFFF" opacity="0.08"/>
    <circle cx="873" cy="289" r="2" fill="#FFFFFF" opacity="0.14"/>
    <circle cx="152" cy="341" r="2" fill="#FFFFFF" opacity="0.09"/>
    <circle cx="815" cy="332" r="4" fill="#FFFFFF" opacity="0.08"/>
    <circle cx="963" cy="358" r="2" fill="#FFFFFF" opacity="0.11"/>
    <circle cx="72" cy="427" r="3" fill="#FFFFFF" opacity="0.10"/>
    <circle cx="230" cy="465" r="2" fill="#FFFFFF" opacity="0.12"/>
    <circle cx="678" cy="415" r="2" fill="#FFFFFF" opacity="0.09"/>
    <circle cx="905" cy="442" r="5" fill="#FFFFFF" opacity="0.08"/>
    <circle cx="48" cy="538" r="2" fill="#FFFFFF" opacity="0.11"/>
    <circle cx="185" cy="572" r="3" fill="#FFFFFF" opacity="0.08"/>
    <circle cx="356" cy="510" r="2" fill="#FFFFFF" opacity="0.13"/>
    <circle cx="840" cy="528" r="2" fill="#FFFFFF" opacity="0.10"/>
    <circle cx="958" cy="560" r="3" fill="#FFFFFF" opacity="0.09"/>
    <circle cx="112" cy="633" r="4" fill="#FFFFFF" opacity="0.08"/>
    <circle cx="275" cy="658" r="2" fill="#FFFFFF" opacity="0.11"/>
    <circle cx="780" cy="610" r="2" fill="#FFFFFF" opacity="0.10"/>
    <circle cx="930" cy="648" r="3" fill="#FFFFFF" opacity="0.12"/>
    <circle cx="63" cy="735" r="2" fill="#FFFFFF" opacity="0.09"/>
    <circle cx="198" cy="762" r="5" fill="#FFFFFF" opacity="0.08"/>
    <circle cx="387" cy="722" r="2" fill="#FFFFFF" opacity="0.10"/>
    <circle cx="545" cy="760" r="3" fill="#FFFFFF" opacity="0.08"/>
    <circle cx="855" cy="738" r="2" fill="#FFFFFF" opacity="0.14"/>
    <circle cx="970" cy="715" r="2" fill="#FFFFFF" opacity="0.09"/>
    <circle cx="88" cy="842" r="3" fill="#FFFFFF" opacity="0.10"/>
    <circle cx="245" cy="870" r="2" fill="#FFFFFF" opacity="0.08"/>
    <circle cx="430" cy="835" r="4" fill="#FFFFFF" opacity="0.09"/>
    <circle cx="618" cy="858" r="2" fill="#FFFFFF" opacity="0.12"/>
    <circle cx="768" cy="830" r="3" fill="#FFFFFF" opacity="0.08"/>
    <circle cx="920" cy="862" r="2" fill="#FFFFFF" opacity="0.11"/>
    <circle cx="142" cy="938" r="2" fill="#FFFFFF" opacity="0.10"/>
    <circle cx="315" cy="952" r="3" fill="#FFFFFF" opacity="0.09"/>
    <circle cx="512" cy="930" r="2" fill="#FFFFFF" opacity="0.08"/>
    <circle cx="695" cy="955" r="4" fill="#FFFFFF" opacity="0.10"/>
    <circle cx="878" cy="940" r="2" fill="#FFFFFF" opacity="0.12"/>
    <circle cx="505" cy="118" r="6" fill="#FFFFFF" opacity="0.08"/>
    <circle cx="130" cy="505" r="6" fill="#FFFFFF" opacity="0.08"/>
    <circle cx="895" cy="505" r="6" fill="#FFFFFF" opacity="0.08"/>
    <circle cx="505" cy="895" r="6" fill="#FFFFFF" opacity="0.08"/>
    <circle cx="310" cy="310" r="2" fill="#FFFFFF" opacity="0.15"/>
    <circle cx="725" cy="725" r="2" fill="#FFFFFF" opacity="0.15"/>
    <circle cx="720" cy="310" r="3" fill="#FFFFFF" opacity="0.10"/>
    <circle cx="310" cy="725" r="3" fill="#FFFFFF" opacity="0.10"/>
    <circle cx="512" cy="475" r="2" fill="#FFFFFF" opacity="0.09"/>
    <circle cx="450" cy="555" r="2" fill="#FFFFFF" opacity="0.09"/>
    <circle cx="580" cy="490" r="3" fill="#FFFFFF" opacity="0.08"/>
  </g>

  <!-- Top chevron ">" — white, pointing east, upper-left area -->
  <polyline
    points="292,240 572,360 292,480"
    fill="none"
    stroke="#FFFFFF"
    stroke-width="48"
    stroke-linecap="round"
    stroke-linejoin="round"
  />
  <!-- Tip circle (east end) — kept from v1.0 -->
  <circle cx="572" cy="360" r="28" fill="#FFFFFF"/>
  <!-- Open-end circle (upper arm endpoint) — NEW in v1.1 -->
  <circle cx="292" cy="240" r="28" fill="#FFFFFF"/>

  <!-- Bottom chevron "<" — white, pointing west, lower-right area -->
  <polyline
    points="732,544 452,664 732,784"
    fill="none"
    stroke="#FFFFFF"
    stroke-width="48"
    stroke-linecap="round"
    stroke-linejoin="round"
  />
  <!-- Tip circle (west end) — kept from v1.0 -->
  <circle cx="452" cy="664" r="28" fill="#FFFFFF"/>
  <!-- Open-end circle (lower arm endpoint) — NEW in v1.1 -->
  <circle cx="732" cy="784" r="28" fill="#FFFFFF"/>
</svg>
