<svg xmlns="http://www.w3.org/2000/svg" viewBox="0 0 1024 1024" width="1024" height="1024">
  <!-- DCC — white heart-bulb on transparent background -->
  <path d="M512 180 C660 180 760 300 760 430 C760 540 680 600 660 660 L620 720 L404 720 L364 660 C344 600 264 540 264 430 C264 300 364 180 512 180Z" fill="none" stroke="#FFFFFF" stroke-width="40" stroke-linejoin="round"/>
  <line x1="404" y1="760" x2="620" y2="760" stroke="#FFFFFF" stroke-width="32" stroke-linecap="round"/>
  <line x1="420" y1="800" x2="604" y2="800" stroke="#FFFFFF" stroke-width="28" stroke-linecap="round"/>
  <path d="M512 480 C512 440 460 400 430 440 C400 480 440 520 512 570 C584 520 624 480 594 440 C564 400 512 440 512 480Z" fill="#FFFFFF" opacity="0.8"/>
</svg>
